<svg width="60" height="60" viewBox="0 0 60 60" fill="none" xmlns="http://www.w3.org/2000/svg">
<path d="M51.5625 36.5625H8.4375V25.3125L30 19.6875L51.5625 25.3125V36.5625Z" fill="#DA9367"/>
<path d="M43.125 34.6875H16.875V4.6875L24.375 2.8125C26.0408 3.92298 27.998 4.51554 30 4.51554C32.002 4.51554 33.9592 3.92298 35.625 2.8125L43.125 4.6875V34.6875Z" fill="#48CAE4"/>
<path d="M43.125 10.6313V34.6875H16.875V4.6875L22.5 3.28125V4.6875C22.5008 9.59053 24.1731 14.3467 27.2409 18.1714C30.3088 21.996 34.589 24.6605 39.375 25.725V14.3531C39.3729 13.6153 39.5917 12.8937 40.0031 12.2812C40.4132 11.6713 40.9935 11.1953 41.6719 10.9125C42.1312 10.7178 42.6262 10.622 43.125 10.6313Z" fill="#00B4D8"/>
<path d="M30 8.4375C28.5082 8.4375 27.0774 7.84487 26.0226 6.78997C24.9676 5.73508 24.375 4.30434 24.375 2.8125C26.0408 3.92298 27.998 4.51554 30 4.51554C32.002 4.51554 33.9592 3.92298 35.625 2.8125C35.625 4.30434 35.0324 5.73508 33.9774 6.78997C32.9226 7.84487 31.4918 8.4375 30 8.4375Z" fill="#0096C7"/>
<path d="M48.7499 16.875L43.1249 14.0625C42.2751 12.6466 41.8262 11.0263 41.8262 9.375C41.8262 7.72366 42.2751 6.10339 43.1249 4.6875L53.4374 10.3125L48.7499 16.875Z" fill="#FF7373"/>
<path d="M30.0002 15.106L29.1621 14.2679C28.4301 13.5362 27.4375 13.1252 26.4026 13.1252C25.3676 13.1252 24.375 13.5362 23.643 14.2679C22.9114 14.9999 22.5005 15.9924 22.5005 17.0274C22.5005 18.0623 22.9114 19.0548 23.643 19.7869L28.6202 24.7641C28.9862 25.13 29.4826 25.3356 30.0002 25.3356C30.5178 25.3356 31.0142 25.13 31.3802 24.7641L36.3574 19.7869C37.0889 19.0548 37.4999 18.0623 37.4999 17.0274C37.4999 15.9924 37.0889 14.9999 36.3574 14.2679C35.6254 13.5362 34.6328 13.1252 33.5979 13.1252C32.563 13.1252 31.5703 13.5362 30.8383 14.2679L30.0002 15.106Z" fill="#EF5350"/>
<path d="M32.9717 23.1751L31.3779 24.7689C31.012 25.1337 30.5165 25.3385 29.9998 25.3385C29.4832 25.3385 28.9876 25.1337 28.6217 24.7689L23.6436 19.7908C22.9114 19.0585 22.5 18.0653 22.5 17.0298C22.5 15.9943 22.9114 15.0011 23.6436 14.2689C23.8819 14.0257 24.1534 13.8175 24.4498 13.6501C26.2688 17.6093 29.2385 20.9285 32.9717 23.1751Z" fill="#E53935"/>
<path d="M41.957 10.8281C42.137 11.9708 42.5335 13.0686 43.1252 14.0625L48.7502 16.875L53.4377 10.3125L50.9889 12.1491C50.5935 12.4458 50.1269 12.633 49.6361 12.6919C49.1453 12.7508 48.6477 12.6793 48.1933 12.4847L44.568 10.9312C43.739 10.5812 42.811 10.5445 41.957 10.8281Z" fill="#EF5350"/>
<path d="M10.3125 16.875L16.875 14.0625C17.7248 12.6466 18.1737 11.0263 18.1737 9.375C18.1737 7.72366 17.7248 6.10339 16.875 4.6875L6.5625 10.3125L10.3125 16.875Z" fill="#EF5350"/>
<path d="M51.5625 49.6875L30 57.1875V32.8125L51.5625 25.3125V49.6875Z" fill="#F9DBAF"/>
<path d="M51.5625 37.0875L38.4375 42.1875C38.4373 43.2402 38.6915 44.2775 39.1784 45.2108C39.6653 46.1441 40.3706 46.9461 41.2343 47.5481C42.0978 48.1502 43.0941 48.5348 44.1382 48.6689C45.1824 48.8031 46.2435 48.683 47.2313 48.3188L51.5625 46.725V49.6875L30 57.1875V32.8125L51.5625 25.3125V37.0875Z" fill="#EDB88E"/>
<path d="M8.4375 49.6875L30 57.1875V32.8125L8.4375 25.3125V49.6875Z" fill="#DA9367"/>
<path d="M56.25 33.75L34.6875 42.1875L30 32.8125L51.5625 25.3125L56.25 33.75Z" fill="#FCF2AD"/>
<path d="M3.75 33.75L25.3125 42.1875L30 32.8125L8.4375 25.3125L3.75 33.75Z" fill="#FCF2AD"/>
<path d="M56.25 33.75L34.6875 42.1875L30 32.8125L33.6563 31.5375C34.727 33.131 36.3086 34.3123 38.1406 34.8866C39.9726 35.4609 41.9455 35.394 43.7344 34.6968L54.45 30.5062L56.25 33.75Z" fill="#F9DBAF"/>
<path d="M26.7094 39.3938L25.3125 42.1875L3.75 33.75L8.4375 25.3125L10.7062 26.1L10.6219 26.25C10.2325 26.9513 9.99769 27.7278 9.93309 28.5273C9.8685 29.3268 9.97566 30.1309 10.2473 30.8856C10.519 31.6403 10.949 32.3282 11.5084 32.9031C12.0678 33.4779 12.7436 33.9265 13.4906 34.2188L26.7094 39.3938Z" fill="#F9DBAF"/>
<path d="M43.125 47.4938V52.6219L38.4375 54.2531V49.125L43.125 47.4938Z" fill="#FCF2AD"/>
<path d="M21.5625 49.125V54.2531L16.875 52.6219V47.4938L21.5625 49.125Z" fill="#EDB88E"/>
<path d="M43.125 48.4593V52.6218L38.4375 54.2531V49.125L41.8687 47.9343C42.266 48.157 42.6875 48.3331 43.125 48.4593Z" fill="#F9DBAF"/>
</svg>
