<svg width="219" height="34" viewBox="0 0 219 34" fill="none" xmlns="http://www.w3.org/2000/svg">
<path d="M30.5764 20.9844H3.42361V14.1541L17 10.7389L30.5764 14.1541V20.9844Z" fill="#DA9367"/>
<path d="M25.2639 19.846H8.73611V1.63168L13.4583 0.493286C14.5071 1.1675 15.7395 1.52728 17 1.52728C18.2605 1.52728 19.4929 1.1675 20.5417 0.493286L25.2639 1.63168V19.846Z" fill="#48CAE4"/>
<path d="M25.2639 5.24045V19.846H8.73611V1.63175L12.2778 0.777954V1.63175C12.2783 4.60859 13.3312 7.49629 15.2628 9.81839C17.1944 12.1405 19.8894 13.7582 22.9028 14.4045V7.50016C22.9015 7.05221 23.0392 6.6141 23.2983 6.24224C23.5565 5.87192 23.9218 5.58294 24.349 5.41121C24.6381 5.29299 24.9499 5.23482 25.2639 5.24045Z" fill="#00B4D8"/>
<path d="M17 3.90846C16.0607 3.90846 15.1599 3.54865 14.4957 2.90818C13.8315 2.26771 13.4583 1.39905 13.4583 0.493286C14.5071 1.1675 15.7395 1.52728 17 1.52728C18.2605 1.52728 19.4929 1.1675 20.5417 0.493286C20.5417 1.39905 20.1686 2.26771 19.5043 2.90818C18.8401 3.54865 17.9393 3.90846 17 3.90846Z" fill="#0096C7"/>
<path d="M28.8055 9.03127L25.2639 7.32368C24.7289 6.46402 24.4462 5.48028 24.4462 4.4777C24.4462 3.4751 24.7289 2.49136 25.2639 1.63171L31.7569 5.04689L28.8055 9.03127Z" fill="#FF7373"/>
<path d="M17 7.95724L16.4723 7.44838C16.0114 7.00417 15.3864 6.75464 14.7348 6.75464C14.0832 6.75464 13.4582 7.00417 12.9973 7.44838C12.5367 7.8928 12.278 8.49541 12.278 9.12381C12.278 9.75214 12.5367 10.3547 12.9973 10.7992L16.1311 13.8211C16.3616 14.0433 16.6741 14.1681 17 14.1681C17.3259 14.1681 17.6384 14.0433 17.8689 13.8211L21.0027 10.7992C21.4633 10.3547 21.722 9.75214 21.722 9.12381C21.722 8.49541 21.4633 7.8928 21.0027 7.44838C20.5418 7.00417 19.9168 6.75464 19.2652 6.75464C18.6136 6.75464 17.9886 7.00417 17.5277 7.44838L17 7.95724Z" fill="#EF5350"/>
<path d="M18.8712 12.8563L17.8677 13.8239C17.6373 14.0454 17.3253 14.1698 17 14.1698C16.6747 14.1698 16.3627 14.0454 16.1323 13.8239L12.9979 10.8015C12.5369 10.3569 12.2779 9.75387 12.2779 9.1252C12.2779 8.49646 12.5369 7.89345 12.9979 7.44891C13.148 7.30126 13.3189 7.17484 13.5056 7.07324C14.6509 9.47702 16.5206 11.4923 18.8712 12.8563Z" fill="#E53935"/>
<path d="M24.5284 5.35993C24.6417 6.05367 24.8914 6.7202 25.2639 7.32366L28.8056 9.03125L31.757 5.04688L30.2151 6.16193C29.9662 6.34208 29.6724 6.45575 29.3634 6.4915C29.0544 6.5273 28.741 6.48387 28.4549 6.3657L26.1723 5.42254C25.6504 5.21001 25.0661 5.18775 24.5284 5.35993Z" fill="#EF5350"/>
<path d="M4.60415 9.03127L8.7361 7.32368C9.27118 6.46402 9.55381 5.48028 9.55381 4.4777C9.55381 3.4751 9.27118 2.49136 8.7361 1.63171L2.24304 5.04689L4.60415 9.03127Z" fill="#EF5350"/>
<path d="M30.5764 28.9532L17 33.5067V18.7076L30.5764 14.1541V28.9532Z" fill="#F9DBAF"/>
<path d="M30.5764 21.3032L22.3125 24.3996C22.3124 25.0387 22.4724 25.6685 22.779 26.2352C23.0856 26.8018 23.5297 27.2887 24.0734 27.6543C24.6171 28.0198 25.2444 28.2533 25.9019 28.3347C26.5593 28.4162 27.2274 28.3433 27.8493 28.1221L30.5764 27.1545V28.9532L17 33.5067V18.7076L30.5764 14.1541V21.3032Z" fill="#EDB88E"/>
<path d="M3.42361 28.9532L17 33.5067V18.7076L3.42361 14.1541V28.9532Z" fill="#DA9367"/>
<path d="M33.5278 19.2768L19.9514 24.3996L17 18.7076L30.5764 14.1541L33.5278 19.2768Z" fill="#FCF2AD"/>
<path d="M0.472229 19.2768L14.0486 24.3996L17 18.7076L3.42362 14.1541L0.472229 19.2768Z" fill="#FCF2AD"/>
<path d="M33.5278 19.2768L19.9514 24.3996L17 18.7076L19.3021 17.9335C19.9762 18.901 20.9721 19.6182 22.1256 19.9669C23.279 20.3156 24.5213 20.2749 25.6476 19.8517L32.3944 17.3074L33.5278 19.2768Z" fill="#F9DBAF"/>
<path d="M14.9281 22.7034L14.0486 24.3996L0.472229 19.2768L3.42362 14.1541L4.85209 14.6322L4.79896 14.7232C4.55382 15.1491 4.40596 15.6205 4.36529 16.1059C4.32462 16.5913 4.39209 17.0795 4.56315 17.5377C4.73421 17.996 5.00491 18.4136 5.35713 18.7626C5.70935 19.1116 6.13488 19.384 6.60522 19.5614L14.9281 22.7034Z" fill="#F9DBAF"/>
<path d="M25.2639 27.6212V30.7347L22.3125 31.7251V28.6116L25.2639 27.6212Z" fill="#FCF2AD"/>
<path d="M11.6875 28.6116V31.7251L8.73611 30.7347V27.6212L11.6875 28.6116Z" fill="#EDB88E"/>
<path d="M25.2639 28.2074V30.7347L22.3125 31.7251V28.6116L24.4729 27.8887C24.723 28.0239 24.9884 28.1308 25.2639 28.2074Z" fill="#F9DBAF"/>
<path d="M51.912 26.264C50.088 26.264 48.528 25.904 47.232 25.184C45.936 24.464 44.936 23.456 44.232 22.16C43.544 20.848 43.2 19.304 43.2 17.528C43.2 16.2 43.392 15.008 43.776 13.952C44.176 12.88 44.752 11.968 45.504 11.216C46.256 10.448 47.168 9.856 48.24 9.44C49.328 9.024 50.552 8.816 51.912 8.816C52.712 8.816 53.52 8.92 54.336 9.128C55.168 9.32 55.888 9.6 56.496 9.968C56.896 10.192 57.168 10.472 57.312 10.808C57.456 11.144 57.496 11.48 57.432 11.816C57.384 12.152 57.248 12.44 57.024 12.68C56.816 12.92 56.552 13.072 56.232 13.136C55.912 13.2 55.552 13.128 55.152 12.92C54.672 12.632 54.168 12.424 53.64 12.296C53.112 12.168 52.576 12.104 52.032 12.104C50.96 12.104 50.056 12.32 49.32 12.752C48.6 13.168 48.056 13.776 47.688 14.576C47.32 15.376 47.136 16.36 47.136 17.528C47.136 18.68 47.32 19.664 47.688 20.48C48.056 21.296 48.6 21.92 49.32 22.352C50.056 22.768 50.96 22.976 52.032 22.976C52.544 22.976 53.064 22.912 53.592 22.784C54.136 22.656 54.656 22.456 55.152 22.184C55.568 21.976 55.936 21.904 56.256 21.968C56.592 22.016 56.864 22.16 57.072 22.4C57.296 22.624 57.432 22.896 57.48 23.216C57.544 23.536 57.512 23.856 57.384 24.176C57.256 24.496 57.016 24.768 56.664 24.992C56.072 25.392 55.344 25.704 54.48 25.928C53.616 26.152 52.76 26.264 51.912 26.264ZM64.6185 26.264C63.3545 26.264 62.2505 26.016 61.3065 25.52C60.3785 25.024 59.6585 24.312 59.1465 23.384C58.6345 22.456 58.3785 21.36 58.3785 20.096C58.3785 19.152 58.5225 18.304 58.8105 17.552C59.0985 16.8 59.5145 16.16 60.0585 15.632C60.6185 15.088 61.2825 14.68 62.0505 14.408C62.8185 14.12 63.6745 13.976 64.6185 13.976C65.8825 13.976 66.9785 14.224 67.9065 14.72C68.8505 15.216 69.5785 15.92 70.0905 16.832C70.6185 17.744 70.8825 18.832 70.8825 20.096C70.8825 21.056 70.7305 21.912 70.4265 22.664C70.1385 23.416 69.7225 24.064 69.1785 24.608C68.6345 25.152 67.9705 25.568 67.1865 25.856C66.4185 26.128 65.5625 26.264 64.6185 26.264ZM64.6185 23.552C65.1465 23.552 65.6025 23.424 65.9865 23.168C66.3705 22.912 66.6745 22.536 66.8985 22.04C67.1225 21.528 67.2345 20.88 67.2345 20.096C67.2345 18.928 66.9945 18.072 66.5145 17.528C66.0345 16.968 65.4025 16.688 64.6185 16.688C64.1065 16.688 63.6505 16.808 63.2505 17.048C62.8665 17.288 62.5625 17.664 62.3385 18.176C62.1305 18.672 62.0265 19.312 62.0265 20.096C62.0265 21.264 62.2665 22.136 62.7465 22.712C63.2265 23.272 63.8505 23.552 64.6185 23.552ZM74.9113 26.216C74.3193 26.216 73.8633 26.056 73.5433 25.736C73.2393 25.416 73.0873 24.96 73.0873 24.368V15.848C73.0873 15.256 73.2393 14.808 73.5433 14.504C73.8633 14.184 74.3033 14.024 74.8633 14.024C75.4393 14.024 75.8793 14.184 76.1833 14.504C76.4873 14.808 76.6393 15.256 76.6393 15.848V17.216L76.3753 16.424C76.7433 15.64 77.2873 15.04 78.0073 14.624C78.7433 14.192 79.5753 13.976 80.5033 13.976C81.4473 13.976 82.2233 14.16 82.8313 14.528C83.4393 14.88 83.8953 15.424 84.1993 16.16C84.5033 16.88 84.6553 17.8 84.6553 18.92V24.368C84.6553 24.96 84.4953 25.416 84.1753 25.736C83.8713 26.056 83.4233 26.216 82.8313 26.216C82.2553 26.216 81.8073 26.056 81.4873 25.736C81.1833 25.416 81.0313 24.96 81.0313 24.368V19.088C81.0313 18.272 80.8793 17.688 80.5753 17.336C80.2873 16.968 79.8393 16.784 79.2313 16.784C78.4633 16.784 77.8473 17.024 77.3833 17.504C76.9353 17.984 76.7113 18.624 76.7113 19.424V24.368C76.7113 25.6 76.1113 26.216 74.9113 26.216ZM93.4808 26.264C92.0888 26.264 90.8888 26.016 89.8808 25.52C88.8888 25.008 88.1208 24.296 87.5768 23.384C87.0488 22.456 86.7848 21.368 86.7848 20.12C86.7848 18.904 87.0408 17.84 87.5527 16.928C88.0648 16 88.7768 15.28 89.6888 14.768C90.6168 14.24 91.6648 13.976 92.8328 13.976C93.6808 13.976 94.4488 14.12 95.1368 14.408C95.8248 14.68 96.4168 15.08 96.9128 15.608C97.4088 16.12 97.7848 16.752 98.0408 17.504C98.2968 18.24 98.4248 19.064 98.4248 19.976C98.4248 20.28 98.3288 20.512 98.1368 20.672C97.9448 20.816 97.6648 20.888 97.2968 20.888H89.7608V19.016H95.8088L95.4248 19.352C95.4248 18.696 95.3288 18.152 95.1368 17.72C94.9448 17.272 94.6648 16.936 94.2968 16.712C93.9448 16.488 93.5048 16.376 92.9768 16.376C92.3848 16.376 91.8808 16.512 91.4648 16.784C91.0488 17.056 90.7288 17.448 90.5048 17.96C90.2808 18.472 90.1688 19.088 90.1688 19.808V20C90.1688 21.216 90.4488 22.112 91.0088 22.688C91.5848 23.264 92.4328 23.552 93.5528 23.552C93.9368 23.552 94.3768 23.504 94.8728 23.408C95.3688 23.312 95.8328 23.16 96.2648 22.952C96.6328 22.776 96.9608 22.72 97.2488 22.784C97.5368 22.832 97.7608 22.96 97.9208 23.168C98.0808 23.376 98.1688 23.616 98.1848 23.888C98.2168 24.16 98.1608 24.432 98.0168 24.704C97.8728 24.96 97.6328 25.176 97.2968 25.352C96.7528 25.656 96.1368 25.88 95.4488 26.024C94.7768 26.184 94.1208 26.264 93.4808 26.264ZM106.269 26.264C104.989 26.264 103.869 26.016 102.909 25.52C101.965 25.008 101.237 24.288 100.725 23.36C100.213 22.432 99.9566 21.336 99.9566 20.072C99.9566 19.128 100.101 18.28 100.389 17.528C100.677 16.776 101.093 16.136 101.637 15.608C102.197 15.08 102.869 14.68 103.653 14.408C104.437 14.12 105.309 13.976 106.269 13.976C106.765 13.976 107.293 14.04 107.853 14.168C108.413 14.28 108.965 14.48 109.509 14.768C109.829 14.912 110.045 15.12 110.157 15.392C110.285 15.648 110.333 15.92 110.301 16.208C110.269 16.48 110.165 16.728 109.989 16.952C109.829 17.16 109.621 17.304 109.365 17.384C109.109 17.448 108.821 17.4 108.501 17.24C108.197 17.064 107.877 16.936 107.541 16.856C107.221 16.776 106.917 16.736 106.629 16.736C106.149 16.736 105.725 16.816 105.357 16.976C104.989 17.12 104.677 17.336 104.421 17.624C104.181 17.896 103.989 18.24 103.845 18.656C103.717 19.072 103.653 19.552 103.653 20.096C103.653 21.152 103.909 21.984 104.421 22.592C104.949 23.184 105.685 23.48 106.629 23.48C106.917 23.48 107.221 23.448 107.541 23.384C107.861 23.304 108.181 23.176 108.501 23C108.821 22.84 109.109 22.8 109.365 22.88C109.621 22.96 109.821 23.112 109.965 23.336C110.125 23.544 110.213 23.792 110.229 24.08C110.261 24.352 110.213 24.624 110.085 24.896C109.973 25.152 109.765 25.352 109.461 25.496C108.917 25.768 108.373 25.96 107.829 26.072C107.285 26.2 106.765 26.264 106.269 26.264ZM117.848 26.264C116.744 26.264 115.816 26.08 115.064 25.712C114.328 25.344 113.776 24.808 113.408 24.104C113.056 23.4 112.88 22.512 112.88 21.44V16.928H111.872C111.424 16.928 111.072 16.808 110.816 16.568C110.576 16.328 110.456 16 110.456 15.584C110.456 15.136 110.576 14.8 110.816 14.576C111.072 14.336 111.424 14.216 111.872 14.216H112.88V12.392C112.88 11.784 113.04 11.328 113.36 11.024C113.68 10.704 114.128 10.544 114.704 10.544C115.296 10.544 115.744 10.704 116.048 11.024C116.352 11.328 116.504 11.784 116.504 12.392V14.216H118.784C119.232 14.216 119.576 14.336 119.816 14.576C120.056 14.8 120.176 15.136 120.176 15.584C120.176 16 120.056 16.328 119.816 16.568C119.576 16.808 119.232 16.928 118.784 16.928H116.504V21.296C116.504 21.968 116.656 22.472 116.96 22.808C117.28 23.144 117.784 23.312 118.472 23.312C118.712 23.312 118.936 23.288 119.144 23.24C119.352 23.192 119.544 23.16 119.72 23.144C119.944 23.128 120.128 23.2 120.272 23.36C120.416 23.504 120.488 23.832 120.488 24.344C120.488 24.728 120.424 25.064 120.296 25.352C120.168 25.64 119.944 25.848 119.624 25.976C119.416 26.056 119.128 26.12 118.76 26.168C118.408 26.232 118.104 26.264 117.848 26.264ZM125.751 26.264C124.887 26.264 124.111 26.096 123.423 25.76C122.735 25.424 122.199 24.968 121.815 24.392C121.431 23.816 121.239 23.168 121.239 22.448C121.239 21.584 121.463 20.904 121.911 20.408C122.359 19.896 123.087 19.536 124.095 19.328C125.103 19.104 126.439 18.992 128.103 18.992H129.375V20.864H128.127C127.311 20.864 126.647 20.912 126.135 21.008C125.639 21.088 125.279 21.232 125.055 21.44C124.847 21.648 124.743 21.936 124.743 22.304C124.743 22.752 124.895 23.12 125.199 23.408C125.519 23.696 125.975 23.84 126.567 23.84C127.031 23.84 127.439 23.736 127.791 23.528C128.159 23.304 128.447 23.008 128.655 22.64C128.863 22.256 128.967 21.824 128.967 21.344V18.584C128.967 17.88 128.807 17.384 128.487 17.096C128.167 16.792 127.623 16.64 126.855 16.64C126.423 16.64 125.951 16.696 125.439 16.808C124.943 16.904 124.391 17.072 123.783 17.312C123.431 17.472 123.119 17.512 122.847 17.432C122.575 17.336 122.367 17.176 122.223 16.952C122.079 16.712 122.007 16.456 122.007 16.184C122.007 15.896 122.087 15.624 122.247 15.368C122.407 15.096 122.671 14.896 123.039 14.768C123.791 14.464 124.495 14.256 125.151 14.144C125.823 14.032 126.439 13.976 126.999 13.976C128.231 13.976 129.239 14.16 130.023 14.528C130.823 14.88 131.423 15.432 131.823 16.184C132.223 16.92 132.423 17.872 132.423 19.04V24.368C132.423 24.96 132.279 25.416 131.991 25.736C131.703 26.056 131.287 26.216 130.743 26.216C130.199 26.216 129.775 26.056 129.471 25.736C129.183 25.416 129.039 24.96 129.039 24.368V23.48L129.207 23.624C129.111 24.168 128.903 24.64 128.583 25.04C128.279 25.424 127.887 25.728 127.407 25.952C126.927 26.16 126.375 26.264 125.751 26.264ZM148.19 26.264C147.518 26.264 146.83 26.208 146.126 26.096C145.438 26 144.774 25.856 144.134 25.664C143.51 25.472 142.95 25.232 142.454 24.944C142.102 24.752 141.854 24.504 141.71 24.2C141.566 23.88 141.51 23.56 141.542 23.24C141.59 22.92 141.71 22.64 141.902 22.4C142.11 22.144 142.366 21.984 142.67 21.92C142.99 21.84 143.342 21.896 143.726 22.088C144.382 22.456 145.094 22.728 145.862 22.904C146.646 23.08 147.422 23.168 148.19 23.168C149.358 23.168 150.19 22.992 150.686 22.64C151.182 22.272 151.43 21.816 151.43 21.272C151.43 20.808 151.254 20.44 150.902 20.168C150.55 19.896 149.934 19.664 149.054 19.472L146.342 18.896C144.806 18.576 143.662 18.032 142.91 17.264C142.174 16.48 141.806 15.456 141.806 14.192C141.806 13.392 141.974 12.664 142.31 12.008C142.646 11.352 143.118 10.784 143.726 10.304C144.334 9.824 145.054 9.456 145.886 9.2C146.734 8.944 147.662 8.816 148.67 8.816C149.566 8.816 150.446 8.928 151.31 9.152C152.174 9.36 152.934 9.672 153.59 10.088C153.91 10.28 154.126 10.528 154.238 10.832C154.366 11.12 154.406 11.416 154.358 11.72C154.326 12.008 154.206 12.264 153.997 12.488C153.806 12.712 153.558 12.856 153.254 12.92C152.95 12.984 152.582 12.912 152.15 12.704C151.622 12.432 151.062 12.232 150.47 12.104C149.878 11.976 149.27 11.912 148.646 11.912C147.974 11.912 147.398 12 146.918 12.176C146.454 12.352 146.094 12.6 145.838 12.92C145.598 13.24 145.478 13.608 145.478 14.024C145.478 14.488 145.646 14.864 145.982 15.152C146.318 15.44 146.902 15.672 147.734 15.848L150.446 16.424C152.014 16.76 153.182 17.304 153.95 18.056C154.718 18.792 155.102 19.768 155.102 20.984C155.102 21.784 154.942 22.512 154.622 23.168C154.302 23.808 153.838 24.36 153.23 24.824C152.622 25.288 151.894 25.648 151.046 25.904C150.198 26.144 149.246 26.264 148.19 26.264ZM162.868 26.264C161.605 26.264 160.501 26.016 159.557 25.52C158.629 25.024 157.909 24.312 157.396 23.384C156.885 22.456 156.629 21.36 156.629 20.096C156.629 19.152 156.773 18.304 157.061 17.552C157.349 16.8 157.765 16.16 158.309 15.632C158.869 15.088 159.533 14.68 160.301 14.408C161.069 14.12 161.925 13.976 162.868 13.976C164.133 13.976 165.229 14.224 166.157 14.72C167.101 15.216 167.829 15.92 168.341 16.832C168.869 17.744 169.133 18.832 169.133 20.096C169.133 21.056 168.981 21.912 168.677 22.664C168.389 23.416 167.973 24.064 167.429 24.608C166.885 25.152 166.221 25.568 165.437 25.856C164.669 26.128 163.813 26.264 162.868 26.264ZM162.868 23.552C163.397 23.552 163.853 23.424 164.237 23.168C164.621 22.912 164.925 22.536 165.149 22.04C165.373 21.528 165.485 20.88 165.485 20.096C165.485 18.928 165.245 18.072 164.765 17.528C164.285 16.968 163.653 16.688 162.868 16.688C162.357 16.688 161.901 16.808 161.501 17.048C161.117 17.288 160.813 17.664 160.589 18.176C160.381 18.672 160.277 19.312 160.277 20.096C160.277 21.264 160.517 22.136 160.997 22.712C161.477 23.272 162.101 23.552 162.868 23.552ZM177.073 26.264C175.793 26.264 174.673 26.016 173.713 25.52C172.769 25.008 172.041 24.288 171.529 23.36C171.017 22.432 170.761 21.336 170.761 20.072C170.761 19.128 170.905 18.28 171.193 17.528C171.481 16.776 171.897 16.136 172.441 15.608C173.001 15.08 173.673 14.68 174.457 14.408C175.241 14.12 176.113 13.976 177.073 13.976C177.569 13.976 178.097 14.04 178.657 14.168C179.217 14.28 179.769 14.48 180.313 14.768C180.633 14.912 180.849 15.12 180.961 15.392C181.089 15.648 181.137 15.92 181.105 16.208C181.073 16.48 180.969 16.728 180.793 16.952C180.633 17.16 180.425 17.304 180.169 17.384C179.913 17.448 179.625 17.4 179.305 17.24C179.001 17.064 178.681 16.936 178.345 16.856C178.025 16.776 177.721 16.736 177.433 16.736C176.953 16.736 176.529 16.816 176.161 16.976C175.793 17.12 175.481 17.336 175.225 17.624C174.985 17.896 174.793 18.24 174.649 18.656C174.521 19.072 174.457 19.552 174.457 20.096C174.457 21.152 174.713 21.984 175.225 22.592C175.753 23.184 176.489 23.48 177.433 23.48C177.721 23.48 178.025 23.448 178.345 23.384C178.665 23.304 178.985 23.176 179.305 23C179.625 22.84 179.913 22.8 180.169 22.88C180.425 22.96 180.625 23.112 180.769 23.336C180.929 23.544 181.017 23.792 181.033 24.08C181.065 24.352 181.017 24.624 180.889 24.896C180.777 25.152 180.569 25.352 180.265 25.496C179.721 25.768 179.177 25.96 178.633 26.072C178.089 26.2 177.569 26.264 177.073 26.264ZM184.622 26.192C184.03 26.192 183.574 26.024 183.254 25.688C182.95 25.336 182.798 24.848 182.798 24.224V16.016C182.798 15.376 182.95 14.888 183.254 14.552C183.574 14.2 184.03 14.024 184.622 14.024C185.198 14.024 185.638 14.2 185.942 14.552C186.262 14.888 186.422 15.376 186.422 16.016V24.224C186.422 24.848 186.27 25.336 185.966 25.688C185.662 26.024 185.214 26.192 184.622 26.192ZM184.622 12.056C183.95 12.056 183.43 11.904 183.062 11.6C182.71 11.28 182.534 10.832 182.534 10.256C182.534 9.664 182.71 9.216 183.062 8.912C183.43 8.592 183.95 8.432 184.622 8.432C185.294 8.432 185.806 8.592 186.158 8.912C186.51 9.216 186.686 9.664 186.686 10.256C186.686 10.832 186.51 11.28 186.158 11.6C185.806 11.904 185.294 12.056 184.622 12.056ZM193.204 26.264C192.34 26.264 191.564 26.096 190.876 25.76C190.188 25.424 189.652 24.968 189.268 24.392C188.884 23.816 188.692 23.168 188.692 22.448C188.692 21.584 188.916 20.904 189.364 20.408C189.812 19.896 190.54 19.536 191.548 19.328C192.556 19.104 193.892 18.992 195.556 18.992H196.828V20.864H195.58C194.764 20.864 194.1 20.912 193.588 21.008C193.092 21.088 192.732 21.232 192.508 21.44C192.3 21.648 192.196 21.936 192.196 22.304C192.196 22.752 192.348 23.12 192.652 23.408C192.972 23.696 193.428 23.84 194.02 23.84C194.484 23.84 194.892 23.736 195.244 23.528C195.612 23.304 195.9 23.008 196.108 22.64C196.316 22.256 196.42 21.824 196.42 21.344V18.584C196.42 17.88 196.26 17.384 195.94 17.096C195.62 16.792 195.076 16.64 194.308 16.64C193.876 16.64 193.404 16.696 192.892 16.808C192.396 16.904 191.844 17.072 191.236 17.312C190.884 17.472 190.572 17.512 190.3 17.432C190.028 17.336 189.82 17.176 189.676 16.952C189.532 16.712 189.46 16.456 189.46 16.184C189.46 15.896 189.54 15.624 189.7 15.368C189.86 15.096 190.124 14.896 190.492 14.768C191.244 14.464 191.948 14.256 192.604 14.144C193.276 14.032 193.892 13.976 194.452 13.976C195.684 13.976 196.692 14.16 197.476 14.528C198.276 14.88 198.876 15.432 199.276 16.184C199.676 16.92 199.876 17.872 199.876 19.04V24.368C199.876 24.96 199.732 25.416 199.444 25.736C199.156 26.056 198.74 26.216 198.196 26.216C197.652 26.216 197.228 26.056 196.924 25.736C196.636 25.416 196.492 24.96 196.492 24.368V23.48L196.66 23.624C196.564 24.168 196.356 24.64 196.036 25.04C195.732 25.424 195.34 25.728 194.86 25.952C194.38 26.16 193.828 26.264 193.204 26.264ZM206.828 26.264C205.404 26.264 204.34 25.872 203.636 25.088C202.932 24.288 202.58 23.104 202.58 21.536V10.712C202.58 10.104 202.732 9.648 203.036 9.344C203.356 9.024 203.812 8.864 204.404 8.864C204.98 8.864 205.42 9.024 205.724 9.344C206.044 9.648 206.204 10.104 206.204 10.712V21.392C206.204 22.048 206.34 22.536 206.612 22.856C206.9 23.16 207.276 23.312 207.74 23.312C207.868 23.312 207.988 23.304 208.1 23.288C208.212 23.272 208.332 23.264 208.46 23.264C208.716 23.232 208.892 23.312 208.988 23.504C209.1 23.68 209.156 24.04 209.156 24.584C209.156 25.064 209.06 25.432 208.868 25.688C208.676 25.928 208.38 26.088 207.98 26.168C207.82 26.184 207.636 26.2 207.428 26.216C207.22 26.248 207.02 26.264 206.828 26.264Z" fill="url(#paint0_linear_320_158)"/>
<defs>
<linearGradient id="paint0_linear_320_158" x1="42" y1="17" x2="219" y2="17" gradientUnits="userSpaceOnUse">
<stop stop-color="#387AA1"/>
<stop offset="1" stop-color="#0096FF"/>
</linearGradient>
</defs>
</svg>
